<?xml version="1.0" ?><svg height="60px" version="1.1" viewBox="0 0 60 60" width="60px" xmlns="http://www.w3.org/2000/svg" xmlns:xlink="http://www.w3.org/1999/xlink"><title/><desc/><defs/><g fill="none" fill-rule="evenodd" id="People" stroke="none" stroke-width="1"><g fill="#000000" id="Icon-37"><path d="M30,10 C31.103,10 32,9.103 32,8 C32,6.897 31.103,6 30,6 C28.897,6 28,6.897 28,8 C28,9.103 28.897,10 30,10 L30,10 Z M24,8 C24,10.096 25.833,13.104 26.801,14.401 L30,18.399 L33.219,14.375 C34.182,13.273 36,10.067 36,8 C36,4.691 33.309,2 30,2 C26.691,2 24,4.691 24,8 L24,8 Z M25.219,15.625 C24.871,15.16 22,11.221 22,8 C22,3.589 25.589,0 30,0 C34.411,0 38,3.589 38,8 C38,10.755 35.85,14.405 34.752,15.658 L30.781,20.625 C30.591,20.862 30.304,21 30,21 C29.696,21 29.409,20.862 29.219,20.625 L25.219,15.625 Z M41,55 C41.552,55 42,54.553 42,54 L42,39.754 L55.275,35.962 C55.806,35.81 56.113,35.256 55.961,34.726 C55.81,34.194 55.256,33.893 54.725,34.038 L40.725,38.038 C40.296,38.161 40,38.554 40,39 L40,54 C40,54.553 40.448,55 41,55 L41,55 Z M37,54 C37.552,54 38,53.553 38,53 L38,39 C38,38.571 37.726,38.189 37.319,38.053 L23.319,33.334 C22.795,33.155 22.228,33.437 22.052,33.962 C21.876,34.485 22.157,35.053 22.681,35.229 L36,39.718 L36,53 C36,53.553 36.448,54 37,54 L37,54 Z M14.713,27.042 L4.713,30.042 C4.184,30.201 3.883,30.759 4.042,31.287 C4.172,31.721 4.569,32 5,32 C5.095,32 5.191,31.986 5.287,31.958 L15.287,28.958 C15.816,28.799 16.117,28.241 15.958,27.713 C15.799,27.184 15.243,26.888 14.713,27.042 L14.713,27.042 Z M19,8 C18.448,8 18,8.447 18,9 L18,27 C18,27.431 18.275,27.812 18.684,27.948 L36.684,33.948 C36.787,33.983 36.894,34 37,34 C37.207,34 37.412,33.936 37.584,33.812 C37.846,33.623 38,33.321 38,33 L38,18 C38,17.447 37.552,17 37,17 C36.448,17 36,17.447 36,18 L36,31.612 L20,26.279 L20,9 C20,8.447 19.552,8 19,8 L19,8 Z M58.02,8.907 C57.037,8.109 55.896,7.798 54.725,8.038 L40.725,12.038 C40.296,12.161 40,12.554 40,13 L40,33 C40,33.313 40.147,33.609 40.398,33.799 C40.647,33.986 40.973,34.048 41.275,33.962 L55.275,29.962 C55.806,29.81 56.113,29.256 55.961,28.726 C55.81,28.194 55.256,27.89 54.725,28.038 L42,31.674 L42,13.754 L55.204,9.979 C55.871,9.84 56.464,10.221 56.757,10.459 C57.512,11.073 58,12.07 58,13 L58,51 C58,52.314 57.003,53.229 54.725,54.038 L41.037,57.949 L20,50.3 L20,33 C20,32.687 19.853,32.391 19.602,32.201 C19.352,32.013 19.027,31.953 18.725,32.038 L4.725,36.038 C4.194,36.19 3.887,36.744 4.039,37.274 C4.19,37.806 4.744,38.107 5.275,37.962 L18,34.326 L18,51 C18,51.421 18.263,51.796 18.658,51.939 L40.658,59.939 C40.769,59.979 40.884,60 41,60 C41.092,60 41.185,59.987 41.275,59.962 L55.334,55.942 C56.61,55.49 60,54.288 60,51 L60,13 C60,11.47 59.241,9.901 58.02,8.907 L58.02,8.907 Z M15.958,51.869 C16.109,52.399 15.802,52.953 15.271,53.105 L5.275,55.962 C4.949,56.054 4.622,56.1 4.296,56.1 C3.514,56.1 2.749,55.836 2.072,55.324 C0.813,54.372 0,52.675 0,51 L0,13 C0,9.712 3.39,8.51 4.666,8.058 L18.725,4.038 C19.256,3.892 19.81,4.194 19.961,4.726 C20.113,5.256 19.806,5.81 19.275,5.962 L5.275,9.962 C2.997,10.771 2,11.686 2,13 L2,51 C2,52.037 2.525,53.16 3.278,53.729 C3.737,54.076 4.224,54.18 4.728,54.038 L14.721,51.182 C15.252,51.034 15.806,51.338 15.958,51.869 L15.958,51.869 Z" id="map"/></g></g></svg>